D:\PredSimResults\Vitruvian_Man\IG_v16ms_ATx70.mot
version=1
nRows=9
nColumns=31
inDegrees=yes
endheader
                time	         pelvis_tilt	           pelvis_tx	           pelvis_ty	       hip_flexion_r	        knee_angle_r	       ankle_angle_r	       hip_flexion_l	        knee_angle_l	       ankle_angle_l	    lumbar_extension	          arm_flex_r	          arm_flex_l	hamstrings_r/activation	bifemsh_r/activation	glut_max_r/activation	iliopsoas_r/activation	rect_fem_r/activation	  vasti_r/activation	gastroc_r/activation	 soleus_r/activation	tib_ant_r/activation	hamstrings_l/activation	bifemsh_l/activation	glut_max_l/activation	iliopsoas_l/activation	rect_fem_l/activation	  vasti_l/activation	gastroc_l/activation	 soleus_l/activation	tib_ant_l/activation	
          0.00000000	         -9.09719491	          0.00000000	          0.97517640	         29.11066999	          1.38237211	          2.12664379	         -8.33397200	        -10.05649928	         -2.88789879	         -4.30109908	          3.84388693	          3.88136772	          0.50787869	          0.05000294	          0.12159618	          0.05000053	          0.05766332	          0.05000706	          0.05970835	          0.05814296	          0.48499103	          0.05000042	          0.15757287	          0.05000017	          0.50496649	          0.05000027	          0.05000012	          0.30880805	          0.23483515	          0.05000007	
          0.00919307	         -9.51012910	          0.01914913	          0.97314467	         28.33283550	          1.78216329	          1.03971556	         -7.37868710	        -12.79803456	         -4.25888036	         -3.20752225	          3.09077720	          3.12878478	          0.45217353	          0.05000374	          0.16002408	          0.05000020	          0.05000235	          0.05001099	          0.05177602	          0.05041820	          0.64392529	          0.05296799	          0.13663771	          0.05000015	          0.43787607	          0.05000013	          0.05000007	          0.26777946	          0.20363468	          0.05000005	
          0.01838615	         -9.91395460	          0.03821995	          0.97138755	         27.53199438	          2.11302450	         -0.36887741	         -6.15768424	        -15.89917534	         -6.17647143	         -2.11713802	          2.33227272	          2.37064110	          0.39278640	          0.10461563	          0.18278791	          0.05000017	          0.05000031	          0.05000185	          0.05000012	          0.05000003	          0.77922932	          0.05000023	          0.11848399	          0.05000021	          0.37969934	          0.05000383	          0.05000007	          0.23220197	          0.17657953	          0.05000005	
          0.02757922	        -10.31087260	          0.05679812	          0.97022865	         26.73856115	          2.60613363	         -2.60030640	         -4.65980208	        -19.26790794	         -8.82432653	         -1.08596822	          1.63016604	          1.66870630	          0.35795832	          0.09071735	          0.21635082	          0.05000010	          0.05000032	          0.05000447	          0.05000016	          0.05000006	          0.86311947	          0.05000060	          0.10274222	          0.05000024	          0.32925205	          0.14107054	          0.05000010	          0.20135135	          0.15311897	          0.30272255	
          0.03677230	        -10.69569987	          0.07467044	          0.96969875	         26.02930859	          2.96038584	         -4.57393572	         -2.97296687	        -22.73962954	        -11.59079813	         -0.14842710	          1.01756782	          1.05609148	          0.31734744	          0.07866596	          0.22479002	          0.05000012	          0.05000036	          0.05000537	          0.05000013	          0.05000005	          0.91513239	          0.05000019	          0.08909231	          0.05000013	          0.28550724	          0.22355354	          0.05000005	          0.17459961	          0.13277541	          0.26250249	
          0.04596537	        -11.06086759	          0.09181340	          0.96980576	         25.39344908	          3.16496527	         -6.17633644	         -1.21854332	        -26.13587662	        -12.66166597	          0.68190141	          0.50080718	          0.53912641	          0.28546863	          0.06821812	          0.23027063	          0.05000018	          0.05000046	          0.05000410	          0.05000015	          0.05000006	          0.94738101	          0.05000021	          0.07986073	          0.05000008	          0.24757442	          0.30068002	          0.05000004	          0.15140214	          0.11513472	          0.40487329	
          0.05515845	        -11.39730123	          0.10835056	          0.97058055	         24.79501962	          3.24227605	         -7.30486269	          0.50520240	        -29.23415370	        -12.46080698	          1.40746133	          0.06575964	          0.10368460	          0.25611222	          0.05915721	          0.23826985	          0.05000019	          0.05000046	          0.05000447	          0.05000018	          0.05000008	          0.96737554	          0.05000028	          0.11932824	          0.05000008	          0.21468141	          0.36831582	          0.05000003	          0.13128672	          0.09983779	          0.43215024	
          0.06435152	        -11.69814506	          0.12441539	          0.97200862	         24.20158217	          3.21657109	         -7.88874771	          2.14075009	        -31.85966581	        -12.23859048	          2.03500231	         -0.30352668	         -0.26618287	          0.22835121	          0.05130006	          0.24486535	          0.05000017	          0.05000044	          0.05000606	          0.05000024	          0.05000012	          0.97977235	          0.05000034	          0.14839623	          0.05000009	          0.18615865	          0.41852655	          0.05000004	          0.11384390	          0.08657324	          0.42870230	
          0.07354460	        -11.95632695	          0.14011020	          0.97402113	         23.58454667	          3.11951750	         -7.93834404	          3.65692891	        -33.98640331	        -11.78919519	          2.56763883	         -0.61849640	         -0.58191129	          0.20035931	          0.05000518	          0.24309303	          0.05000017	          0.05000046	          0.05000803	          0.05000032	          0.05000019	          0.98745821	          0.05000028	          0.18543308	          0.05000009	          0.16142618	          0.44789070	          0.05000005	          0.09871856	          0.07507103	          0.41663779	
